HIERARCHY
ROOT Hips
{
	OFFSET 0.000000 0.000000 0.000000
	CHANNELS 6 Xposition Yposition Zposition Xrotation Yrotation Zrotation
	JOINT LeftUpLeg_virtual
	{
		OFFSET 0.000000 0.000000 0.000000
		CHANNELS 3 Xrotation Yrotation Zrotation
		JOINT LeftUpLeg
		{
			OFFSET 13.026900 -6.336304 -1.092800
			CHANNELS 3 Xrotation Yrotation Zrotation
			JOINT LeftLeg
			{
				OFFSET 0.524474 -46.096886 9.782700
				CHANNELS 3 Xrotation Yrotation Zrotation
				JOINT LeftFoot
				{
					OFFSET -0.524474 -53.427422 -12.948200
					CHANNELS 3 Xrotation Yrotation Zrotation
					JOINT LeftToeBase
					{
						OFFSET 0.192200 -14.009700 16.364100
						CHANNELS 3 Xrotation Yrotation Zrotation
						JOINT LeftToe_End
						{
							OFFSET -1.784700 -0.561700 9.474800
							CHANNELS 3 Xrotation Yrotation Zrotation
							End Site
							{
								OFFSET 0 0 0
							}
						}
					}
				}
			}
		}
	}
	JOINT RightUpLeg_virtual
	{
		OFFSET 0.000000 0.000000 0.000000
		CHANNELS 3 Xrotation Yrotation Zrotation
		JOINT RightUpLeg
		{
			OFFSET -12.883000 -6.336304 -1.092800
			CHANNELS 3 Xrotation Yrotation Zrotation
			JOINT RightLeg
			{
				OFFSET -0.524587 -46.096825 9.782800
				CHANNELS 3 Xrotation Yrotation Zrotation
				JOINT RightFoot
				{
					OFFSET 0.524587 -53.427383 -12.948300
					CHANNELS 3 Xrotation Yrotation Zrotation
					JOINT RightToeBase
					{
						OFFSET -0.192200 -14.009700 16.364100
						CHANNELS 3 Xrotation Yrotation Zrotation
						JOINT RightToe_End
						{
							OFFSET 1.784700 -0.561700 9.474800
							CHANNELS 3 Xrotation Yrotation Zrotation
							End Site
							{
								OFFSET 0 0 0
							}
						}
					}
				}
			}
		}
	}
	JOINT Spine_virtual
	{
		OFFSET 0.000000 0.000000 0.000000
		CHANNELS 3 Xrotation Yrotation Zrotation
		JOINT Spine
		{
			OFFSET 0.072000 7.257294 -0.789700
			CHANNELS 3 Xrotation Yrotation Zrotation
			JOINT Spine1
			{
				OFFSET 0.000000 12.508769 -0.658067
				CHANNELS 3 Xrotation Yrotation Zrotation
				JOINT Spine1_split
				{
					OFFSET 0.000000 12.508769 -0.658067
					CHANNELS 3 Xrotation Yrotation Zrotation
					JOINT Spine2
					{
						OFFSET 0.000000 12.508769 -0.658067
						CHANNELS 3 Xrotation Yrotation Zrotation
						JOINT Neck_virtual
						{
							OFFSET 0.000000 0.000000 0.000000
							CHANNELS 3 Xrotation Yrotation Zrotation
							JOINT Neck
							{
								OFFSET 0.000000 14.033295 7.520400
								CHANNELS 3 Xrotation Yrotation Zrotation
								JOINT Head
								{
									OFFSET 0.000000 8.198502 5.703100
									CHANNELS 3 Xrotation Yrotation Zrotation
									JOINT HeadTop_End
									{
										OFFSET 0.000000 17.760803 13.332701
										CHANNELS 3 Xrotation Yrotation Zrotation
										End Site
										{
											OFFSET 0 0 0
										}
									}
								}
							}
						}
						JOINT LeftShoulder_virtual
						{
							OFFSET 0.000000 0.000000 0.000000
							CHANNELS 3 Xrotation Yrotation Zrotation
							JOINT LeftShoulder
							{
								OFFSET 6.292450 5.785301 -0.669000
								CHANNELS 3 Xrotation Yrotation Zrotation
								JOINT LeftShoulder_split
								{
									OFFSET 6.292450 5.785301 -0.669000
									CHANNELS 3 Xrotation Yrotation Zrotation
									JOINT LeftArm
									{
										OFFSET 13.907140 -6.093903 1.965100
										CHANNELS 3 Xrotation Yrotation Zrotation
										JOINT LeftForeArm
										{
											OFFSET 34.140198 0.000000 0.000000
											CHANNELS 3 Xrotation Yrotation Zrotation
											JOINT LeftHand
											{
												OFFSET 40.960209 0.000000 0.000000
												CHANNELS 3 Xrotation Yrotation Zrotation
												End Site
												{
													OFFSET 0 0 0
												}
											}
										}
									}
								}
							}
						}
						JOINT RightShoulder_virtual
						{
							OFFSET 0.000000 0.000000 0.000000
							CHANNELS 3 Xrotation Yrotation Zrotation
							JOINT RightShoulder
							{
								OFFSET -6.292450 5.785301 -0.669000
								CHANNELS 3 Xrotation Yrotation Zrotation
								JOINT RightShoulder_split
								{
									OFFSET -6.292450 5.785301 -0.669000
									CHANNELS 3 Xrotation Yrotation Zrotation
									JOINT RightArm
									{
										OFFSET -13.907140 -6.093903 1.965100
										CHANNELS 3 Xrotation Yrotation Zrotation
										JOINT RightForeArm
										{
											OFFSET -34.140198 0.000000 0.000000
											CHANNELS 3 Xrotation Yrotation Zrotation
											JOINT RightHand
											{
												OFFSET -40.960209 0.000000 0.000000
												CHANNELS 3 Xrotation Yrotation Zrotation
												End Site
												{
													OFFSET 0 0 0
												}
											}
										}
									}
								}
							}
						}
					}
				}
			}
		}
	}
}
MOTION
Frames: 10
Frame Time: 0.03333333
3.949807 107.616539 -18.297626 0.000000 0.000000 0.000000 27.574792 -75.589622 28.131053 -26.308992 41.556831 31.597193 19.474565 -15.561208 2.044320 -1.711350 12.713643 -21.996701 -0.166128 -1.951561 -4.333198 0.000000 0.000000 0.000000 23.800554 -74.239006 24.443884 -36.032383 3.923474 -19.099012 16.921034 10.495872 1.621732 6.853114 6.234537 29.488679 6.157460 0.872353 -10.468326 0.000000 0.000000 0.000000 10.620182 -68.405970 13.874664 4.999937 0.777019 -6.936767 6.136033 -2.741677 -0.661004 0.120553 -0.103416 -0.015157 0.000000 0.000000 0.000000 4.939331 0.073191 0.018496 -10.746533 11.745635 -1.630217 -40.373979 56.696820 4.895594 0.000000 0.000000 0.000000 6.415411 -2.660063 -0.943855 7.526710 0.285215 12.074949 -0.498255 -6.544364 2.462934 -38.834434 0.348193 11.464782 15.589017 -11.633874 8.094319 0.000000 0.000000 0.000000 6.382984 -1.842352 0.160097 -3.498155 13.520714 -15.456240 4.878232 -2.069872 14.433797 -59.504198 44.941053 45.059967 -174.141082 49.940786 177.258381 0.000000 0.000000 0.000000 
3.967294 107.618881 -18.273823 0.000000 0.000000 0.000000 27.481770 -75.582436 28.036897 -26.309141 41.541846 31.579352 19.483137 -15.529760 2.046757 -1.728755 12.723118 -21.975278 -0.151615 -1.950186 -4.342053 0.000000 0.000000 0.000000 23.754566 -74.222928 24.390915 -36.042751 3.898830 -19.108626 16.926549 10.506963 1.618637 6.844148 6.235097 29.526679 6.167091 0.870792 -10.475424 0.000000 0.000000 0.000000 10.569546 -68.425880 13.833746 5.023673 0.765241 -6.921476 6.129889 -2.740531 -0.655372 0.115281 -0.102919 -0.015591 0.000000 0.000000 0.000000 4.939685 0.074305 0.022665 -10.769629 11.754144 -1.665482 -40.332236 56.761809 4.901034 0.000000 0.000000 0.000000 6.416744 -2.662089 -0.941946 7.531130 0.279878 12.119394 -0.432306 -6.518335 2.471702 -38.889096 0.332113 11.425111 15.634284 -11.570773 8.108985 0.000000 0.000000 0.000000 6.396371 -1.836075 0.167558 -3.524875 13.460232 -15.508383 4.802134 -2.083162 14.423794 -59.561073 44.969914 45.061429 -174.137804 49.946981 177.249242 0.000000 0.000000 0.000000 
3.977998 107.621475 -18.248814 0.000000 0.000000 0.000000 27.353702 -75.573414 27.918607 -26.309038 41.509068 31.548620 19.505121 -15.495597 2.049998 -1.730101 12.728708 -21.971431 -0.122456 -1.950569 -4.348607 0.000000 0.000000 0.000000 23.654569 -74.187384 24.290936 -36.033790 3.864767 -19.127229 16.931689 10.516604 1.610651 6.804312 6.213926 29.561492 6.215226 0.872285 -10.483547 0.000000 0.000000 0.000000 10.489882 -68.412165 13.764066 5.048022 0.732040 -6.886221 6.135833 -2.747571 -0.657393 0.112474 -0.098528 -0.015356 0.000000 0.000000 0.000000 4.957444 0.063827 0.019779 -10.844640 11.774967 -1.710589 -40.455607 56.884015 5.142323 0.000000 0.000000 0.000000 6.434091 -2.674643 -0.945322 7.528814 0.298916 12.190663 -0.367121 -6.498850 2.485357 -38.955632 0.410481 11.368562 15.591927 -11.588230 8.076182 0.000000 0.000000 0.000000 6.425549 -1.842977 0.167644 -3.558792 13.375912 -15.616000 4.740103 -2.036249 14.456756 -59.668041 44.939073 45.065230 -174.107478 49.955655 177.202851 0.000000 0.000000 0.000000 
3.980245 107.626068 -18.225521 0.000000 0.000000 0.000000 27.208496 -75.564008 27.790628 -26.305401 41.461919 31.508414 19.534654 -15.466371 2.054754 -1.707065 12.720878 -21.985054 -0.114181 -1.952399 -4.343976 0.000000 0.000000 0.000000 23.513874 -74.140979 24.158138 -36.007477 3.819260 -19.156305 16.934057 10.528376 1.598991 6.751391 6.174543 29.597457 6.285263 0.878194 -10.491782 0.000000 0.000000 0.000000 10.391853 -68.368288 13.668859 5.072658 0.677308 -6.834695 6.152975 -2.765134 -0.663134 0.113637 -0.094968 -0.011872 0.000000 0.000000 0.000000 4.990058 0.040735 0.012489 -10.961356 11.808084 -1.754997 -40.703071 57.073020 5.579013 0.000000 0.000000 0.000000 6.465370 -2.699371 -0.949304 7.518638 0.342271 12.292230 -0.305874 -6.490969 2.494889 -39.033879 0.602080 11.307703 15.471968 -11.697192 8.007929 0.000000 0.000000 0.000000 6.467417 -1.863456 0.163811 -3.601259 13.275613 -15.758857 4.703317 -1.921993 14.517039 -59.795164 44.866502 45.071848 -174.055131 49.978331 177.128238 0.000000 0.000000 0.000000 
3.977477 107.635544 -18.195881 0.000000 0.000000 0.000000 27.054232 -75.551304 27.654621 -26.295122 41.409876 31.459923 19.560934 -15.437269 2.062035 -1.676409 12.696251 -21.991440 -0.134865 -1.957093 -4.325941 0.000000 0.000000 0.000000 23.349615 -74.094179 24.006100 -35.961749 3.767833 -19.197741 16.922374 10.552061 1.585831 6.703089 6.127229 29.653137 6.339343 0.889698 -10.497820 0.000000 0.000000 0.000000 10.289022 -68.309610 13.560466 5.094618 0.602856 -6.769114 6.177299 -2.795842 -0.667768 0.116633 -0.093545 -0.009520 0.000000 0.000000 0.000000 5.032062 0.004914 0.005974 -11.102828 11.853890 -1.783544 -41.005007 57.337683 6.143098 0.000000 0.000000 0.000000 6.511036 -2.738104 -0.948910 7.503947 0.406167 12.429641 -0.252302 -6.494069 2.492552 -39.118385 0.902930 11.241133 15.299130 -11.864269 7.917098 0.000000 0.000000 0.000000 6.516175 -1.897799 0.160758 -3.653605 13.168285 -15.914911 4.693169 -1.774224 14.562134 -59.914180 44.760958 45.070366 -173.985272 50.020856 177.033039 0.000000 0.000000 0.000000 
3.973879 107.650696 -18.168621 0.000000 0.000000 0.000000 26.890622 -75.531415 27.504963 -26.283208 41.359347 31.408546 19.588243 -15.407170 2.073624 -1.651724 12.653320 -21.977780 -0.152578 -1.965955 -4.301754 0.000000 0.000000 0.000000 23.168299 -74.048205 23.836568 -35.891309 3.718988 -19.249660 16.891645 10.594535 1.570314 6.671848 6.078416 29.739900 6.358488 0.905705 -10.500098 0.000000 0.000000 0.000000 10.187493 -68.239935 13.444385 5.109271 0.512826 -6.692007 6.204939 -2.840716 -0.666803 0.119016 -0.090329 -0.008182 0.000000 0.000000 0.000000 5.075588 -0.045457 0.004599 -11.249129 11.912392 -1.785407 -41.297752 57.692313 6.774602 0.000000 0.000000 0.000000 6.569712 -2.792180 -0.939196 7.489477 0.484596 12.601690 -0.212814 -6.512063 2.482651 -39.195946 1.279738 11.152258 15.099009 -12.045886 7.816533 0.000000 0.000000 0.000000 6.567009 -1.946929 0.162845 -3.714543 13.064615 -16.066972 4.708100 -1.637425 14.593128 -60.012194 44.634531 45.058666 -173.903009 50.067807 176.923018 0.000000 0.000000 0.000000 
3.969662 107.673256 -18.146053 0.000000 0.000000 0.000000 26.679404 -75.494532 27.303703 -26.278985 41.312833 31.361227 19.615788 -15.374705 2.089275 -1.644828 12.591318 -21.941341 -0.140712 -1.979848 -4.274469 0.000000 0.000000 0.000000 22.965270 -73.997498 23.640973 -35.789563 3.682596 -19.305835 16.838954 10.652789 1.551484 6.655862 6.022042 29.849050 6.355888 0.922946 -10.494662 0.000000 0.000000 0.000000 10.083049 -68.160698 13.320163 5.114493 0.411984 -6.604924 6.232422 -2.900473 -0.658144 0.118348 -0.085319 -0.007662 0.000000 0.000000 0.000000 5.113445 -0.110684 0.011588 -11.374885 11.987383 -1.755667 -41.524818 58.134766 7.412851 0.000000 0.000000 0.000000 6.639076 -2.862740 -0.918882 7.479271 0.571900 12.800934 -0.190991 -6.527643 2.473693 -39.254788 1.681453 11.028295 14.893383 -12.202521 7.719267 0.000000 0.000000 0.000000 6.616898 -2.009487 0.172916 -3.781520 12.971719 -16.205373 4.750463 -1.530217 14.591012 -60.099722 44.493713 45.044049 -173.808357 50.101685 176.795471 0.000000 0.000000 0.000000 
3.966432 107.699135 -18.120251 0.000000 0.000000 0.000000 26.412150 -75.436912 27.042416 -26.281972 41.265267 31.316451 19.640918 -15.343856 2.107615 -1.649602 12.507498 -21.894178 -0.099866 -1.998054 -4.240687 0.000000 0.000000 0.000000 22.729164 -73.931047 23.408247 -35.656009 3.667429 -19.364000 16.767838 10.721520 1.529818 6.647345 5.947196 29.966263 6.353981 0.937181 -10.481496 0.000000 0.000000 0.000000 9.971001 -68.077759 13.190614 5.109323 0.305954 -6.509899 6.258073 -2.973521 -0.642055 0.114568 -0.079160 -0.009105 0.000000 0.000000 0.000000 5.138971 -0.190197 0.028257 -11.462503 12.077773 -1.694529 -41.641478 58.675840 8.013095 0.000000 0.000000 0.000000 6.716027 -2.949920 -0.889430 7.477072 0.661734 13.016607 -0.193262 -6.528635 2.465888 -39.301954 2.060106 10.864991 14.688703 -12.286269 7.628991 0.000000 0.000000 0.000000 6.667176 -2.085149 0.192210 -3.852006 12.895906 -16.324811 4.802990 -1.457532 14.546298 -60.178693 44.329249 45.026557 -173.697352 50.109160 176.645849 0.000000 0.000000 0.000000 
3.963389 107.722176 -18.089649 0.000000 0.000000 0.000000 26.102353 -75.363228 26.738640 -26.288990 41.215622 31.272656 19.661003 -15.317613 2.127249 -1.657040 12.402555 -21.847851 -0.045662 -2.020288 -4.196829 0.000000 0.000000 0.000000 22.465033 -73.845492 23.144859 -35.499977 3.674188 -19.427310 16.688107 10.794659 1.504919 6.644028 5.844362 30.083350 6.357611 0.947869 -10.468480 0.000000 0.000000 0.000000 9.845427 -67.993174 13.055123 5.095576 0.198590 -6.411371 6.282291 -3.058147 -0.620220 0.109953 -0.071876 -0.010563 0.000000 0.000000 0.000000 5.150063 -0.282708 0.053351 -11.497577 12.184670 -1.609748 -41.640945 59.303698 8.556934 0.000000 0.000000 0.000000 6.796897 -3.052679 -0.854258 7.484445 0.744611 13.233141 -0.223950 -6.534637 2.466926 -39.355898 2.403063 10.667290 14.479373 -12.286844 7.546463 0.000000 0.000000 0.000000 6.717993 -2.171877 0.221497 -3.924631 12.841782 -16.426333 4.874114 -1.416007 14.462125 -60.249133 44.136167 45.017268 -173.565926 50.085791 176.470027 0.000000 0.000000 0.000000 
3.959776 107.744354 -18.051937 0.000000 0.000000 0.000000 25.768741 -75.282420 26.415738 -26.291585 41.164109 31.224370 19.671158 -15.287418 2.146106 -1.663790 12.282887 -21.801551 0.017243 -2.046016 -4.145996 0.000000 0.000000 0.000000 22.179322 -73.745744 22.863374 -35.332698 3.694413 -19.500125 16.608952 10.870990 1.476735 6.651038 5.709954 30.199367 6.364079 0.956525 -10.466456 0.000000 0.000000 0.000000 9.705976 -67.906806 12.915564 5.077796 0.092302 -6.313067 6.306751 -3.153184 -0.594250 0.107051 -0.065289 -0.012531 0.000000 0.000000 0.000000 5.146728 -0.385263 0.083621 -11.477230 12.309802 -1.514484 -41.563764 59.982448 9.053825 0.000000 0.000000 0.000000 6.881711 -3.168314 -0.816754 7.502908 0.814884 13.434768 -0.284044 -6.541522 2.478131 -39.429111 2.714574 10.452875 14.273775 -12.235959 7.475824 0.000000 0.000000 0.000000 6.769604 -2.266191 0.258693 -3.999322 12.807777 -16.518042 4.984778 -1.375935 14.374849 -60.300018 43.923966 45.010458 -173.411823 50.037672 176.265654 0.000000 0.000000 0.000000 
